<?xml version="1.0" encoding="utf-8"?>
<!-- Generator: Adobe Illustrator 21.1.0, SVG Export Plug-In . SVG Version: 6.00 Build 0)  -->
<svg version="1.1" xmlns="http://www.w3.org/2000/svg" xmlns:xlink="http://www.w3.org/1999/xlink" x="0px" y="0px"
	 viewBox="0 0 500 200" style="enable-background:new 0 0 500 200;" xml:space="preserve">
<style type="text/css">
	.st0{fill:#FF6815;}
	.st1{fill:#FFFFFF;}
	.st2{display:none;}
	.st3{display:inline;}
	.st4{fill:#FF00FF;}
</style>
<g id="Layer_1">
	<rect class="st0" width="500" height="200"/>
	<g>
		<g>
			<path class="st1" d="M103.6,78l15-37.3L78.8,35l4.6,7.9L41.3,67.3c-7.5,4.3-10.1,13.9-5.7,21.4c0.9,1.6,2.1,2.9,3.4,4l0,0
				l0.3,0.3c0.2,0.2,0.5,0.4,0.7,0.5l15.7,12.2c-2.5-4.3-1-9.9,3.3-12.4l40.2-23.2L103.6,78z"/>
			<path class="st1" d="M104.9,105.6c-0.9-1.6-2.1-2.9-3.4-4l0,0l-0.4-0.3c-0.2-0.2-0.4-0.3-0.6-0.5L84.8,88.6
				c2.5,4.3,1,9.9-3.3,12.4l-1.9,1.1l0,0c-7.2,4.1-22.5,13-31.2,18c-11.7,6.8-14.9,11.7-14.9,27c0,15.3,0,17.8,0,17.8L99.1,127
				C106.6,122.7,109.2,113.1,104.9,105.6z"/>
		</g>
		<g>
			<path class="st1" d="M161.2,52.5c2,0,3.7,0.7,5.2,2.1c1.5,1.5,2.2,3.2,2.2,5.2v23.6c4.6-4.1,11.3-6.1,20.1-6.1
				c9.6,0,17.9,3.4,24.7,10.3c6.8,6.8,10.3,15.1,10.3,24.7c0,9.6-3.4,17.9-10.3,24.7c-6.9,6.8-15.1,10.3-24.7,10.3
				c-9.6,0-17.9-3.4-24.7-10.2c-6.9-6.8-10.3-15-10.3-24.6V59.8c0-2,0.7-3.8,2.2-5.2c1.5-1.4,3.2-2.1,5.2-2.1H161.2z M188.7,92.4
				c-5.6,0-10.4,2-14.3,5.9c-3.9,3.9-5.8,8.7-5.8,14.3c0,5.6,1.9,10.3,5.8,14.2c3.9,3.9,8.7,5.9,14.3,5.9c5.6,0,10.3-2,14.2-5.9
				c3.9-3.9,5.9-8.7,5.9-14.2c0-5.6-2-10.4-5.9-14.3C199,94.4,194.2,92.4,188.7,92.4z"/>
			<path class="st1" d="M252.9,92.3c-1.8,0-3.3,0.6-4.5,1.8c-1.2,1.3-1.8,2.8-1.8,4.5c0,2.4,1.2,4.3,3.5,5.5c0.8,0.4,4.2,1.5,10.2,3
				c4.8,1.4,8.4,3.2,10.8,5.4c3.4,3.2,5,7.8,5,13.7c0,5.8-2.1,10.8-6.2,15c-4.2,4.1-9.2,6.2-15,6.2H239c-2,0-3.7-0.7-5.2-2.2
				c-1.5-1.4-2.2-3.1-2.2-5.2V140c0-2,0.7-3.8,2.2-5.2c1.5-1.5,3.2-2.2,5.2-2.2h16.5c1.8,0,3.3-0.6,4.5-1.8c1.2-1.2,1.8-2.7,1.8-4.5
				c0-2.2-1.2-3.9-3.5-5c-0.6-0.3-4-1.3-10.2-3c-4.8-1.4-8.4-3.3-10.8-5.6c-3.4-3.3-5-7.9-5-13.9c0-5.8,2.1-10.8,6.2-15
				c4.2-4.2,9.2-6.3,15-6.3h11.2c2,0,3.8,0.7,5.2,2.2c1.5,1.5,2.2,3.2,2.2,5.2v0.1c0,2.1-0.7,3.8-2.2,5.2c-1.5,1.5-3.2,2.2-5.2,2.2
				H252.9z"/>
			<path class="st1" d="M345.5,87.7c6.8,6.8,10.3,15.1,10.3,24.7v27.7c0,2.1-0.7,3.8-2.2,5.2c-1.5,1.5-3.2,2.2-5.2,2.2h-0.2
				c-2,0-3.7-0.7-5.2-2.2c-1.5-1.4-2.2-3.1-2.2-5.2c-4.6,4.9-11.3,7.4-20.1,7.4c-9.6,0-17.9-3.4-24.7-10.3
				c-6.9-6.8-10.3-15.1-10.3-24.7c0-9.6,3.4-17.9,10.3-24.7c6.8-6.8,15.1-10.3,24.7-10.3C330.4,77.4,338.7,80.8,345.5,87.7z
				 M306.5,98.2c-3.9,3.9-5.8,8.7-5.8,14.2c0,5.6,1.9,10.4,5.8,14.3c3.9,3.9,8.7,5.8,14.3,5.8s10.3-1.9,14.2-5.8
				c3.9-3.9,5.9-8.7,5.9-14.3c0-5.6-2-10.3-5.9-14.2c-3.9-3.9-8.7-5.9-14.2-5.9C315.2,92.3,310.4,94.3,306.5,98.2z"/>
			<path class="st1" d="M377.9,52.5c2,0,3.7,0.7,5.2,2.1c1.5,1.5,2.2,3.2,2.2,5.2v80.2c0,2.1-0.7,3.8-2.2,5.2
				c-1.5,1.5-3.2,2.2-5.2,2.2h-0.2c-2,0-3.7-0.7-5.2-2.2c-1.5-1.4-2.2-3.1-2.2-5.2V59.8c0-2,0.7-3.8,2.2-5.2
				c1.5-1.4,3.2-2.1,5.2-2.1H377.9z"/>
			<path class="st1" d="M464.9,97.8c0.5,1,0.7,2,0.7,3.1c0,0.9-0.2,1.7-0.5,2.6c-0.7,1.9-2,3.3-3.9,4.1c-5.7,2.6-13.1,5.9-22.4,10.1
				c-11.5,5.2-18.2,8.2-20.2,9.2c3.1,3.9,7.9,5.8,14.4,5.8c4.3,0,8.3-1.3,11.8-3.8c3.4-2.5,5.9-5.8,7.2-9.7c1.2-3.3,3.5-5,7.1-5
				c2.5,0,4.5,1.1,6,3.2c0.9,1.3,1.4,2.7,1.4,4.1c0,0.9-0.2,1.7-0.5,2.6c-2.4,6.9-6.6,12.5-12.6,16.8c-6.1,4.4-12.9,6.6-20.4,6.6
				c-9.6,0-17.9-3.4-24.7-10.3c-6.9-6.8-10.3-15.1-10.3-24.7c0-9.6,3.4-17.9,10.3-24.7c6.8-6.8,15.1-10.3,24.7-10.3
				c7,0,13.3,1.9,19.1,5.7C457.9,86.9,462.1,91.8,464.9,97.8z M433.1,92.4c-5.6,0-10.4,2-14.3,5.9c-3.9,3.9-5.8,8.7-5.8,14.3v0.4
				l34-15.3C443.9,94.2,439.3,92.4,433.1,92.4z"/>
		</g>
	</g>
</g>
<g id="distancias_en__x22_b_x22_" class="st2">
	<g class="st3">
		<g>
			<path class="st4" d="M1028.8,205.3c-6.8,0-12.6-2.4-17.4-7.2c-4.8-4.8-7.2-10.5-7.3-17.3v-37.1c0-1.4,0.5-2.7,1.5-3.7
				c1-1,2.2-1.5,3.6-1.5h0.1c1.4,0,2.6,0.5,3.6,1.5c1,1,1.5,2.3,1.5,3.7v16.6c3.2-2.8,7.9-4.3,14.1-4.3"/>
			<path class="st4" d="M1028.8,166.6c-3.9,0-7.3,1.4-10,4.1c-2.7,2.8-4.1,6.1-4.1,10c0,3.9,1.4,7.2,4.1,10c2.8,2.8,6.1,4.1,10,4.1"
				/>
		</g>
		<g>
			<path class="st4" d="M699.7,197.7c-6.8,0-12.6-2.4-17.4-7.2c-4.8-4.8-7.2-10.5-7.3-17.3v-37.1c0-1.4,0.5-2.7,1.5-3.7
				c1-1,2.2-1.5,3.6-1.5h0.1c1.4,0,2.6,0.5,3.6,1.5c1,1,1.5,2.3,1.5,3.7v16.6c3.2-2.8,7.9-4.3,14.1-4.3"/>
			<path class="st4" d="M699.7,159c-3.9,0-7.3,1.4-10,4.1c-2.7,2.8-4.1,6.1-4.1,10c0,3.9,1.4,7.2,4.1,10c2.8,2.8,6.1,4.1,10,4.1"/>
		</g>
		<g>
			<path class="st4" d="M748.4,211.8c0,6.8-2.4,12.6-7.2,17.4c-4.8,4.8-10.5,7.2-17.3,7.3h-37.1c-1.4,0-2.7-0.5-3.7-1.5
				c-1-1-1.5-2.2-1.5-3.6v-0.1c0-1.4,0.5-2.6,1.5-3.6c1-1,2.3-1.5,3.7-1.5h16.6c-2.8-3.2-4.3-7.9-4.3-14.1"/>
			<path class="st4" d="M709.7,211.8c0,3.9,1.4,7.3,4.1,10c2.8,2.7,6.1,4.1,10,4.1c3.9,0,7.2-1.4,10-4.1c2.8-2.8,4.1-6.1,4.1-10"/>
		</g>
		<g>
			<path class="st4" d="M771.4,95.8c0,6.8-2.4,12.6-7.2,17.4c-4.8,4.8-10.5,7.2-17.3,7.3h-37.1c-1.4,0-2.7-0.5-3.7-1.5
				c-1-1-1.5-2.2-1.5-3.6v-0.1c0-1.4,0.5-2.6,1.5-3.6c1-1,2.3-1.5,3.7-1.5h16.6c-2.8-3.2-4.3-7.9-4.3-14.1"/>
			<path class="st4" d="M732.7,95.8c0,3.9,1.4,7.3,4.1,10c2.8,2.7,6.1,4.1,10,4.1c3.9,0,7.2-1.4,10-4.1c2.8-2.8,4.1-6.1,4.1-10"/>
		</g>
	</g>
	<g class="st3">
		<g>
			<path class="st4" d="M784.2,198.9c-6.8,0-12.6-2.4-17.4-7.2c-4.8-4.8-7.2-10.5-7.3-17.3v-37.1c0-1.4,0.5-2.7,1.5-3.7
				c1-1,2.2-1.5,3.6-1.5h0.1c1.4,0,2.6,0.5,3.6,1.5c1,1,1.5,2.3,1.5,3.7v16.6c3.2-2.8,7.9-4.3,14.1-4.3"/>
			<path class="st4" d="M784.2,160.2c-3.9,0-7.3,1.4-10,4.1c-2.7,2.8-4.1,6.1-4.1,10c0,3.9,1.4,7.2,4.1,10c2.8,2.8,6.1,4.1,10,4.1"
				/>
		</g>
		<g>
			<path class="st4" d="M820.3,120.4c0,3.4-1.2,6.3-3.6,8.7c-2.4,2.4-5.3,3.6-8.7,3.6h-18.6c-0.7,0-1.3-0.3-1.8-0.8
				c-0.5-0.5-0.7-1.1-0.7-1.8v-0.1c0-0.7,0.2-1.3,0.7-1.8c0.5-0.5,1.1-0.8,1.8-0.8h8.3c-1.4-1.6-2.1-4-2.1-7.1"/>
			<path class="st4" d="M801,120.4c0,2,0.7,3.6,2.1,5c1.4,1.4,3.1,2.1,5,2.1c2,0,3.6-0.7,5-2.1c1.4-1.4,2.1-3.1,2.1-5"/>
		</g>
		<g>
			<path class="st4" d="M820.3,199.5c0,3.4-1.2,6.3-3.6,8.7c-2.4,2.4-5.3,3.6-8.7,3.6h-18.6c-0.7,0-1.3-0.3-1.8-0.8
				c-0.5-0.5-0.7-1.1-0.7-1.8v-0.1c0-0.7,0.2-1.3,0.7-1.8c0.5-0.5,1.1-0.8,1.8-0.8h8.3c-1.4-1.6-2.1-4-2.1-7.1"/>
			<path class="st4" d="M801,199.5c0,2,0.7,3.6,2.1,5c1.4,1.4,3.1,2.1,5,2.1c2,0,3.6-0.7,5-2.1c1.4-1.4,2.1-3.1,2.1-5"/>
		</g>
	</g>
	<g class="st3">
		<path class="st4" d="M1415.8,106c0,6.8-2.4,12.6-7.2,17.4c-4.8,4.8-10.5,7.2-17.3,7.3h-37.1c-1.4,0-2.7-0.5-3.7-1.5
			c-1-1-1.5-2.2-1.5-3.6v-0.1c0-1.4,0.5-2.6,1.5-3.6c1-1,2.3-1.5,3.7-1.5h16.6c-2.8-3.2-4.3-7.9-4.3-14.1"/>
		<path class="st4" d="M1377.1,106c0,3.9,1.4,7.3,4.1,10c2.8,2.7,6.1,4.1,10,4.1c3.9,0,7.2-1.4,10-4.1c2.8-2.8,4.1-6.1,4.1-10"/>
	</g>
	<g class="st3">
		<g>
			<path class="st4" d="M2679,832.9c-6.8,0-12.6-2.4-17.4-7.2c-4.8-4.8-7.2-10.5-7.3-17.3v-37.1c0-1.4,0.5-2.7,1.5-3.7
				c1-1,2.2-1.5,3.6-1.5h0.1c1.4,0,2.6,0.5,3.6,1.5c1,1,1.5,2.3,1.5,3.7v16.6c3.2-2.8,7.9-4.3,14.1-4.3"/>
			<path class="st4" d="M2679,794.2c-3.9,0-7.3,1.4-10,4.1c-2.7,2.8-4.1,6.1-4.1,10c0,3.9,1.4,7.2,4.1,10c2.8,2.8,6.1,4.1,10,4.1"/>
		</g>
		<g>
			<path class="st4" d="M2434.3,809.9c-6.8,0-12.6-2.4-17.4-7.2c-4.8-4.8-7.2-10.5-7.3-17.3v-37.1c0-1.4,0.5-2.7,1.5-3.7
				c1-1,2.2-1.5,3.6-1.5h0.1c1.4,0,2.6,0.5,3.6,1.5c1,1,1.5,2.3,1.5,3.7v16.6c3.2-2.8,7.9-4.3,14.1-4.3"/>
			<path class="st4" d="M2434.3,771.2c-3.9,0-7.3,1.4-10,4.1c-2.7,2.8-4.1,6.1-4.1,10c0,3.9,1.4,7.2,4.1,10c2.8,2.8,6.1,4.1,10,4.1"
				/>
		</g>
		<g>
			<path class="st4" d="M2537.5,820.2c0,6.8-2.4,12.6-7.2,17.4c-4.8,4.8-10.5,7.2-17.3,7.3h-37.1c-1.4,0-2.7-0.5-3.7-1.5
				c-1-1-1.5-2.2-1.5-3.6v-0.1c0-1.4,0.5-2.6,1.5-3.6c1-1,2.3-1.5,3.7-1.5h16.6c-2.8-3.2-4.3-7.9-4.3-14.1"/>
			<path class="st4" d="M2498.8,820.2c0,3.9,1.4,7.3,4.1,10c2.8,2.7,6.1,4.1,10,4.1c3.9,0,7.2-1.4,10-4.1c2.8-2.8,4.1-6.1,4.1-10"/>
		</g>
		<g>
			<path class="st4" d="M2586.7,612.4c0,6.8-2.4,12.6-7.2,17.4c-4.8,4.8-10.5,7.2-17.3,7.3h-37.1c-1.4,0-2.7-0.5-3.7-1.5
				c-1-1-1.5-2.2-1.5-3.6v-0.1c0-1.4,0.5-2.6,1.5-3.6c1-1,2.3-1.5,3.7-1.5h16.6c-2.8-3.2-4.3-7.9-4.3-14.1"/>
			<path class="st4" d="M2548,612.4c0,3.9,1.4,7.3,4.1,10c2.8,2.7,6.1,4.1,10,4.1c3.9,0,7.2-1.4,10-4.1c2.8-2.8,4.1-6.1,4.1-10"/>
		</g>
	</g>
</g>
</svg>
