<?xml version="1.0" encoding="utf-8"?>
<!-- Generator: Adobe Illustrator 25.2.0, SVG Export Plug-In . SVG Version: 6.00 Build 0)  -->
<svg version="1.1" id="Capa_1" xmlns="http://www.w3.org/2000/svg" xmlns:xlink="http://www.w3.org/1999/xlink" x="0px" y="0px"
	 viewBox="0 0 256 256" style="enable-background:new 0 0 256 256;" xml:space="preserve">
<style type="text/css">
	.st0{display:none;}
	.st1{display:inline;}
	.st2{fill:#FF00FF;}
	.st3{fill:#FF6815;}
</style>
<g id="distancias_en__x22_b_x22_" class="st0">
	<g class="st1">
		<g>
			<path class="st2" d="M1587.6,231.1c-6.8,0-12.6-2.4-17.4-7.2s-7.2-10.5-7.3-17.3v-37.1c0-1.4,0.5-2.7,1.5-3.7s2.2-1.5,3.6-1.5
				h0.1c1.4,0,2.6,0.5,3.6,1.5s1.5,2.3,1.5,3.7v16.6c3.2-2.8,7.9-4.3,14.1-4.3"/>
			<path class="st2" d="M1587.6,192.4c-3.9,0-7.3,1.4-10,4.1c-2.7,2.8-4.1,6.1-4.1,10s1.4,7.2,4.1,10c2.8,2.8,6.1,4.1,10,4.1"/>
		</g>
		<g>
			<path class="st2" d="M1258.4,223.5c-6.8,0-12.6-2.4-17.4-7.2s-7.2-10.5-7.3-17.3v-37.1c0-1.4,0.5-2.7,1.5-3.7s2.2-1.5,3.6-1.5
				h0.1c1.4,0,2.6,0.5,3.6,1.5s1.5,2.3,1.5,3.7v16.6c3.2-2.8,7.9-4.3,14.1-4.3"/>
			<path class="st2" d="M1258.4,184.8c-3.9,0-7.3,1.4-10,4.1c-2.7,2.8-4.1,6.1-4.1,10s1.4,7.2,4.1,10c2.8,2.8,6.1,4.1,10,4.1"/>
		</g>
		<g>
			<path class="st2" d="M1307.1,237.6c0,6.8-2.4,12.6-7.2,17.4c-4.8,4.8-10.5,7.2-17.3,7.3h-37.1c-1.4,0-2.7-0.5-3.7-1.5
				s-1.5-2.2-1.5-3.6v-0.1c0-1.4,0.5-2.6,1.5-3.6s2.3-1.5,3.7-1.5h16.6c-2.8-3.2-4.3-7.9-4.3-14.1"/>
			<path class="st2" d="M1268.4,237.6c0,3.9,1.4,7.3,4.1,10c2.8,2.7,6.1,4.1,10,4.1s7.2-1.4,10-4.1c2.8-2.8,4.1-6.1,4.1-10"/>
		</g>
		<g>
			<path class="st2" d="M1330.2,121.6c0,6.8-2.4,12.6-7.2,17.4c-4.8,4.8-10.5,7.2-17.3,7.3h-37.1c-1.4,0-2.7-0.5-3.7-1.5
				s-1.5-2.2-1.5-3.6v-0.1c0-1.4,0.5-2.6,1.5-3.6s2.3-1.5,3.7-1.5h16.6c-2.8-3.2-4.3-7.9-4.3-14.1"/>
			<path class="st2" d="M1291.5,121.6c0,3.9,1.4,7.3,4.1,10c2.8,2.7,6.1,4.1,10,4.1s7.2-1.4,10-4.1c2.8-2.8,4.1-6.1,4.1-10"/>
		</g>
	</g>
	<g class="st1">
		<g>
			<path class="st2" d="M1343,224.7c-6.8,0-12.6-2.4-17.4-7.2s-7.2-10.5-7.3-17.3v-37.1c0-1.4,0.5-2.7,1.5-3.7s2.2-1.5,3.6-1.5h0.1
				c1.4,0,2.6,0.5,3.6,1.5s1.5,2.3,1.5,3.7v16.6c3.2-2.8,7.9-4.3,14.1-4.3"/>
			<path class="st2" d="M1343,186c-3.9,0-7.3,1.4-10,4.1c-2.7,2.8-4.1,6.1-4.1,10s1.4,7.2,4.1,10c2.8,2.8,6.1,4.1,10,4.1"/>
		</g>
		<g>
			<path class="st2" d="M1379,146.2c0,3.4-1.2,6.3-3.6,8.7c-2.4,2.4-5.3,3.6-8.7,3.6h-18.6c-0.7,0-1.3-0.3-1.8-0.8s-0.7-1.1-0.7-1.8
				v-0.1c0-0.7,0.2-1.3,0.7-1.8s1.1-0.8,1.8-0.8h8.3c-1.4-1.6-2.1-4-2.1-7.1"/>
			<path class="st2" d="M1359.7,146.2c0,2,0.7,3.6,2.1,5c1.4,1.4,3.1,2.1,5,2.1c2,0,3.6-0.7,5-2.1c1.4-1.4,2.1-3.1,2.1-5"/>
		</g>
		<g>
			<path class="st2" d="M1379,225.3c0,3.4-1.2,6.3-3.6,8.7s-5.3,3.6-8.7,3.6h-18.6c-0.7,0-1.3-0.3-1.8-0.8s-0.7-1.1-0.7-1.8v-0.1
				c0-0.7,0.2-1.3,0.7-1.8s1.1-0.8,1.8-0.8h8.3c-1.4-1.6-2.1-4-2.1-7.1"/>
			<path class="st2" d="M1359.7,225.3c0,2,0.7,3.6,2.1,5s3.1,2.1,5,2.1c2,0,3.6-0.7,5-2.1c1.4-1.4,2.1-3.1,2.1-5"/>
		</g>
	</g>
	<g class="st1">
		<path class="st2" d="M1974.5,131.8c0,6.8-2.4,12.6-7.2,17.4c-4.8,4.8-10.5,7.2-17.3,7.3h-37.1c-1.4,0-2.7-0.5-3.7-1.5
			s-1.5-2.2-1.5-3.6v-0.1c0-1.4,0.5-2.6,1.5-3.6s2.3-1.5,3.7-1.5h16.6c-2.8-3.2-4.3-7.9-4.3-14.1"/>
		<path class="st2" d="M1935.8,131.8c0,3.9,1.4,7.3,4.1,10c2.8,2.7,6.1,4.1,10,4.1s7.2-1.4,10-4.1c2.8-2.8,4.1-6.1,4.1-10"/>
	</g>
	<g class="st1">
		<g>
			<path class="st2" d="M3237.7,858.7c-6.8,0-12.6-2.4-17.4-7.2c-4.8-4.8-7.2-10.5-7.3-17.3v-37.1c0-1.4,0.5-2.7,1.5-3.7
				s2.2-1.5,3.6-1.5h0.1c1.4,0,2.6,0.5,3.6,1.5s1.5,2.3,1.5,3.7v16.6c3.2-2.8,7.9-4.3,14.1-4.3"/>
			<path class="st2" d="M3237.7,820c-3.9,0-7.3,1.4-10,4.1c-2.7,2.8-4.1,6.1-4.1,10s1.4,7.2,4.1,10c2.8,2.8,6.1,4.1,10,4.1"/>
		</g>
		<g>
			<path class="st2" d="M2993.1,835.7c-6.8,0-12.6-2.4-17.4-7.2c-4.8-4.8-7.2-10.5-7.3-17.3v-37.1c0-1.4,0.5-2.7,1.5-3.7
				s2.2-1.5,3.6-1.5h0.1c1.4,0,2.6,0.5,3.6,1.5s1.5,2.3,1.5,3.7v16.6c3.2-2.8,7.9-4.3,14.1-4.3"/>
			<path class="st2" d="M2993.1,797c-3.9,0-7.3,1.4-10,4.1c-2.7,2.8-4.1,6.1-4.1,10s1.4,7.2,4.1,10c2.8,2.8,6.1,4.1,10,4.1"/>
		</g>
		<g>
			<path class="st2" d="M3096.2,846c0,6.8-2.4,12.6-7.2,17.4c-4.8,4.8-10.5,7.2-17.3,7.3h-37.1c-1.4,0-2.6-0.5-3.7-1.5
				c-1-1-1.5-2.2-1.5-3.6v-0.1c0-1.4,0.5-2.6,1.5-3.6s2.3-1.5,3.7-1.5h16.6c-2.8-3.2-4.3-7.9-4.3-14.1"/>
			<path class="st2" d="M3057.6,846c0,3.9,1.4,7.3,4.1,10c2.8,2.7,6.1,4.1,10,4.1s7.2-1.4,10-4.1c2.8-2.8,4.1-6.1,4.1-10"/>
		</g>
		<g>
			<path class="st2" d="M3145.5,638.2c0,6.8-2.4,12.6-7.2,17.4c-4.8,4.8-10.5,7.2-17.3,7.3h-37.1c-1.4,0-2.7-0.5-3.7-1.5
				s-1.5-2.2-1.5-3.6v-0.1c0-1.4,0.5-2.6,1.5-3.6s2.3-1.5,3.7-1.5h16.6c-2.8-3.2-4.3-7.9-4.3-14.1"/>
			<path class="st2" d="M3106.8,638.2c0,3.9,1.4,7.3,4.1,10c2.8,2.7,6.1,4.1,10,4.1s7.2-1.4,10-4.1c2.8-2.8,4.1-6.1,4.1-10"/>
		</g>
	</g>
</g>
<g>
	<path class="st3" d="M163.5,99.9l19.2-47.8l-51-7.3l5.9,10.1L83.7,86.2c-9.6,5.5-12.9,17.8-7.3,27.4c1.2,2,2.7,3.7,4.4,5.1l0,0
		l0.4,0.4c0.3,0.3,0.6,0.5,0.9,0.6l20.1,15.6c-3.2-5.5-1.3-12.7,4.2-15.9l51.5-29.7L163.5,99.9z"/>
	<path class="st3" d="M165.2,135.2c-1.2-2-2.7-3.7-4.4-5.1l0,0l-0.5-0.4c-0.3-0.3-0.5-0.4-0.8-0.6l-20.1-15.6
		c3.2,5.5,1.3,12.7-4.2,15.9l-2.4,1.4l0,0c-9.2,5.3-28.8,16.6-40,23.1c-15,8.7-19.1,15-19.1,34.6s0,22.8,0,22.8l84-48.5
		C167.4,157.1,170.7,144.8,165.2,135.2z"/>
</g>
</svg>
